<svg width="56" height="56" viewBox="0 0 56 56" fill="none" xmlns="http://www.w3.org/2000/svg">
<rect width="56" height="56" rx="8" fill="white"/>
<g clip-path="url(#clip0_424_4939)">
<path d="M41 18C41.2652 18 41.5196 18.1054 41.7071 18.2929C41.8946 18.4804 42 18.7348 42 19V37C42 37.2652 41.8946 37.5196 41.7071 37.7071C41.5196 37.8946 41.2652 38 41 38H15C14.7348 38 14.4804 37.8946 14.2929 37.7071C14.1054 37.5196 14 37.2652 14 37V19C14 18.7348 14.1054 18.4804 14.2929 18.2929C14.4804 18.1054 14.7348 18 15 18H41ZM15 16C14.2044 16 13.4413 16.3161 12.8787 16.8787C12.3161 17.4413 12 18.2044 12 19V37C12 37.7956 12.3161 38.5587 12.8787 39.1213C13.4413 39.6839 14.2044 40 15 40H41C41.7956 40 42.5587 39.6839 43.1213 39.1213C43.6839 38.5587 44 37.7956 44 37V19C44 18.2044 43.6839 17.4413 43.1213 16.8787C42.5587 16.3161 41.7956 16 41 16H15Z" fill="#FFC247"/>
<path d="M18 23C18 22.7348 18.1054 22.4804 18.2929 22.2929C18.4804 22.1054 18.7348 22 19 22H37C37.2652 22 37.5196 22.1054 37.7071 22.2929C37.8946 22.4804 38 22.7348 38 23C38 23.2652 37.8946 23.5196 37.7071 23.7071C37.5196 23.8946 37.2652 24 37 24H19C18.7348 24 18.4804 23.8946 18.2929 23.7071C18.1054 23.5196 18 23.2652 18 23ZM18 28C18 27.7348 18.1054 27.4804 18.2929 27.2929C18.4804 27.1054 18.7348 27 19 27H37C37.2652 27 37.5196 27.1054 37.7071 27.2929C37.8946 27.4804 38 27.7348 38 28C38 28.2652 37.8946 28.5196 37.7071 28.7071C37.5196 28.8946 37.2652 29 37 29H19C18.7348 29 18.4804 28.8946 18.2929 28.7071C18.1054 28.5196 18 28.2652 18 28ZM18 33C18 32.7348 18.1054 32.4804 18.2929 32.2929C18.4804 32.1054 18.7348 32 19 32H31C31.2652 32 31.5196 32.1054 31.7071 32.2929C31.8946 32.4804 32 32.7348 32 33C32 33.2652 31.8946 33.5196 31.7071 33.7071C31.5196 33.8946 31.2652 34 31 34H19C18.7348 34 18.4804 33.8946 18.2929 33.7071C18.1054 33.5196 18 33.2652 18 33Z" fill="#FFC247"/>
</g>
<defs>
<clipPath id="clip0_424_4939">
<rect width="32" height="32" fill="white" transform="translate(12 12)"/>
</clipPath>
</defs>
</svg>
